
<svg xmlns="http://www.w3.org/2000/svg" width="259" height="104" fill="none"><path fill="#FF9A01" fill-rule="evenodd" d="m67.392.012-.218-.01L66.987 0c-.226.002-.363.022-.386.05-.066.076.254 1.019.93 2.234.337.613.76 1.272 1.257 1.964a14.909 14.909 0 0 0 1.728 2.028c1.303 1.311 2.684 2.149 3.768 2.752 1.09.557 1.89.858 1.969.789.16-.118.38-3.94-2.361-6.865a8.577 8.577 0 0 0-1.095-.98 11.56 11.56 0 0 0-1.194-.75 12.93 12.93 0 0 0-.607-.311c-.202-.09-.405-.167-.604-.241-.4-.147-.788-.269-1.155-.369-.71-.199-1.339-.249-1.801-.286l-.044-.003ZM43.846.05c.066.075-.255 1.018-.93 2.233-.337.613-.76 1.272-1.258 1.964a14.786 14.786 0 0 1-1.727 2.028c-1.303 1.311-2.684 2.149-3.768 2.752-1.09.557-1.89.859-1.97.789-.16-.118-.38-3.94 2.362-6.865a8.616 8.616 0 0 1 1.094-.98c.388-.279.79-.528 1.194-.75.202-.11.406-.214.607-.311.203-.09.405-.167.605-.241a14.12 14.12 0 0 1 1.154-.369c.711-.198 1.34-.249 1.803-.286l.042-.003c.468-.028.757-.004.792.039ZM29.146 9.22c1.575-3.468 1.842-7.457 1.668-7.576-.045-.03-.313.038-.725.221-.403.202-.95.52-1.553.954-.597.444-1.231 1.047-1.834 1.74-.291.366-.573.759-.833 1.176a8.25 8.25 0 0 0-.696 1.34c-1.596 3.845-.371 7.591-.19 7.663.041.017.227-.114.501-.371a9.133 9.133 0 0 0 1.059-1.096c.407-.482.871-1.038 1.308-1.737.461-.648.893-1.453 1.295-2.314ZM20.47 8.19c.204.058 1.061 4.018.392 7.948-.083.497-.192.966-.315 1.413-.113.459-.243.892-.385 1.297-.224.61-.448 1.185-.676 1.69l.231-.15.338-.187c.234-.12.478-.23.74-.318a5.169 5.169 0 0 1 2.48-.14c.52.105.993.269 1.392.444.797.35 1.305.744 1.319.805.013.073-.341.467-.978.854-.609.426-1.522.828-2.61 1.012-1.111.152-2.211.04-3.067-.152a8.376 8.376 0 0 1-.63-.166l-.258-.085-.075.114c-.166.237-.286.363-.323.36-.113-.012-.666-.83-1.144-2.188a11.413 11.413 0 0 1-.55-5.385c.168-1.04.456-2.066.87-2.939.2-.442.417-.862.639-1.252.224-.39.47-.731.701-1.05.465-.637.909-1.137 1.266-1.452.351-.322.591-.487.643-.473Zm-7.06 10.43c-.539-1.377-1.07-2.244-1.173-2.241-.125-.009-.8.908-1.462 2.355-.302.74-.607 1.604-.804 2.553-.172.963-.289 1.98-.19 3.033.1 1.053.325 2 .66 2.843a11.45 11.45 0 0 0 1.127 2.155c.562.844 1.12 1.418 1.425 1.666 0 .007.002.013.006.016.005.009.025.018.063.031.086.063.146.092.171.087.01-.003.026-.019.043-.05.732.096 2.773.116 4.552-.51a6.998 6.998 0 0 0 1.442-.672c.404-.25.767-.496 1.038-.736.54-.48.835-.87.804-.925-.028-.046-.65-.24-1.565-.337-.906-.092-2.086-.066-3.252.31a6.248 6.248 0 0 0-2.478 1.597c.084-.263.168-.56.246-.885.178-.659.345-1.432.432-2.301.122-.847.152-1.798.093-2.79-.048-.985-.225-1.95-.44-2.832a17.683 17.683 0 0 0-.738-2.367ZM9.681 36.567c-.073-.804-.188-1.66-.441-2.554-.457-1.762-1.28-3.316-1.977-4.423-.708-1.11-1.34-1.774-1.424-1.747-.047.013-.17.26-.319.685a10.147 10.147 0 0 0-.448 1.754c-.256 1.45-.336 3.39.203 5.243.52 1.85 1.543 3.241 2.411 4.136.867.894 1.644 1.325 1.733 1.28.065-.04.273-.908.311-2.189.02-.642.036-1.378-.049-2.185Zm-5.969 5.677c-.934-.872-1.705-1.341-1.784-1.297-.045.023-.12.282-.188.713a9.219 9.219 0 0 0-.11 1.737c.023 1.411.324 3.24 1.215 4.85.455.806.981 1.48 1.545 2.03.572.552 1.155.981 1.684 1.304 1.057.647 1.895.88 1.986.817.072-.052.12-.916-.092-2.13a11.936 11.936 0 0 0-.462-2.045 11.426 11.426 0 0 0-.934-2.298c-.797-1.547-1.94-2.811-2.86-3.681ZM2.417 53.288c.64.322 1.352.73 2.055 1.222.713.493 1.446 1.07 2.082 1.736a12.87 12.87 0 0 1 2.205 3.102l.033-.078.23-.435c1.31-2.3 3.797-3.207 3.902-3.149.032.017.063.18.068.445.003.132 0 .29-.013.47a6.869 6.869 0 0 1-.042.594 7.77 7.77 0 0 1-.313 1.46c-.165.528-.367 1.084-.685 1.642a10.335 10.335 0 0 1-2.213 2.645c-.73.626-1.332.963-1.41.928-.06-.027-.206-.7-.194-1.663l.003-.147a14.39 14.39 0 0 1-.879-.225c-1.388-.398-3.068-1.177-4.484-2.552a9.987 9.987 0 0 1-1.638-2.227c-.39-.77-.667-1.535-.855-2.214-.32-1.36-.303-2.364-.212-2.426.08-.06 1.079.229 2.36.872Zm11.87 14.854c.639-2.205.176-4.216.06-4.269-.09-.03-2.006 1.278-2.701 3.583a6.118 6.118 0 0 0-.273 1.693v.023a14.12 14.12 0 0 0-2.745-2.636c-1.534-1.088-3.212-1.789-4.574-2.197-1.367-.408-2.339-.52-2.41-.444-.088.083.121 1.1.742 2.411.31.655.766 1.37 1.308 2.073.553.7 1.262 1.368 2.055 1.933 1.648 1.116 3.42 1.57 4.818 1.698.507.049.959.059 1.33.05.001 0 .002.001.024-.004.63-.02 1.026-.105 1.067-.165.026-.04-.046-.265-.219-.607a.842.842 0 0 0-.048-.088 10.162 10.162 0 0 0 1.565-3.054Zm4.284 5.557c.077 0 .336.46.584 1.158.12.351.217.777.274 1.25.07.463.087.981.02 1.54-.237 2.202-1.646 4.236-1.812 4.24-.04.01-.204-.157-.406-.458-.407.135-.99.283-1.69.372-.689.087-1.497.122-2.377.04a9.83 9.83 0 0 1-2.736-.69c-.933-.392-1.75-.942-2.485-1.527a13.691 13.691 0 0 1-1.772-1.846c-.907-1.218-1.358-2.217-1.29-2.32.048-.093 1.034-.187 2.462-.059.71.065 1.522.185 2.365.39.842.205 1.756.474 2.615.87.86.398 1.664.845 2.324 1.332.676.468 1.262.944 1.724 1.396a5.067 5.067 0 0 1-.095-1.699c.29-2.321 2.175-3.99 2.295-3.989Zm6.315 7.527c-.4-.638-.806-.985-.874-.975-.061.015-.444.536-.774 1.344a6.933 6.933 0 0 0-.41 1.41 6.088 6.088 0 0 0-.088.823c-.006.279.013.561.056.85.092.574.267 1.125.512 1.59.247.462.537.868.815 1.201.57.654 1.11.986 1.168.97.082-.025.327-.626.498-1.488.089-.433.15-.92.181-1.451a7.424 7.424 0 0 0-.07-1.644 7.334 7.334 0 0 0-.418-1.495c-.174-.425-.386-.782-.575-1.1l-.021-.035Zm-5.671 5.792c.997.148 1.87.42 2.697.682.407.136.786.285 1.137.439l.23.098c.27.115.529.225.762.34.561.277 1.015.548 1.355.75l.069.042c.34.215.524.375.522.42-.003.207-3.237 2.413-7.48 1.826a11.596 11.596 0 0 1-1.533-.328 13.4 13.4 0 0 1-1.393-.526c-.901-.38-1.652-.87-2.291-1.323a9.527 9.527 0 0 1-1.44-1.251c-.325-.343-.493-.578-.48-.631.021-.095 1.018-.408 2.485-.593 1.456-.178 3.409-.272 5.36.055Zm12.817.55c.224.259.458.616.695 1.013.239.393.466.867.658 1.43.393 1.083.583 2.307.667 3.272.089.946.058 1.647.003 1.7-.018.02-.13-.006-.3-.089a8.477 8.477 0 0 1-1.274 1.236c-1.086.857-2.757 1.803-4.866 2.06-1.06.144-2.095.06-3.086-.082-.959-.187-1.87-.445-2.617-.754a14.028 14.028 0 0 1-1.778-.898c-.413-.272-.64-.475-.644-.53-.015-.223 3.433-2.123 7.342-2.497.484-.036.97-.07 1.433-.076.464-.006.908.012 1.329.05.862.035 1.627.164 2.288.283.182.03.355.064.519.098a6.183 6.183 0 0 1-1.137-1.964c-.392-1.198-.45-2.406-.377-3.368.071-.957.242-1.614.284-1.647.053-.044.41.253.86.763Zm13.435 9.13c.065.099-.174 1.007-.885 2.15a9.29 9.29 0 0 1-1.46 1.804 9.296 9.296 0 0 1-2.329 1.596c-1.855.857-3.979 1.043-5.573.873-1.614-.126-2.69-.567-2.734-.658-.085-.21 2.543-2.944 6.017-4.441.41-.181.813-.319 1.212-.455l.079-.027a12.779 12.779 0 0 1 1.825-.494l.076-.017c.166-.038.329-.076.488-.107.367-.074.714-.126 1.036-.163 1.286-.18 2.192-.15 2.248-.062Zm-4.54-5.586a4.625 4.625 0 0 0-.919-.65c-.552-.332-.969-.427-1.009-.37-.032.05-.04.737.125 1.661.083.462.21.987.402 1.517.195.51.456 1.028.797 1.498.34.484.733.83 1.127 1.097.394.265.787.48 1.14.574.706.216 1.228.212 1.257.157.04-.071-.112-.752-.442-1.623a13.072 13.072 0 0 0-.62-1.395c-.125-.24-.259-.471-.403-.707a7.932 7.932 0 0 0-.46-.696c-.304-.42-.622-.716-.927-1l-.067-.063ZM14.602 45.867c.05.045 0 .612-.279 1.378-.306.765-.781 1.738-1.668 2.63-1.722 1.78-4.345 2.625-4.498 2.525-.057-.036-.067-.68.147-1.556.192-.877.725-1.98 1.6-2.895.927-.913 2.078-1.457 3-1.757.923-.3 1.65-.363 1.698-.325Zm-2.598-8.732a5.936 5.936 0 0 0-1.85 2.374 6.576 6.576 0 0 0-.35.976c-.059.253-.069.414-.048.436.054.06.648.013 1.453-.215.813-.227 1.824-.63 2.689-1.293 1.764-1.307 2.407-3.196 2.34-3.31-.076-.09-2.378-.311-4.234 1.032ZM33.05 14.538c-.678-.578-1.636-1.15-2.803-1.376a5.491 5.491 0 0 0-3.015.405c-.789.32-1.25.729-1.246.792.003.084.512.487 1.29.896.786.422 1.843.87 2.933 1.03.556.098 1.07.111 1.53.072.458-.04.882-.089 1.227-.185.688-.194 1.138-.401 1.14-.478.004-.06-.38-.58-1.056-1.156Zm3.598-4.63c.458.099.942.31 1.4.615 1.853 1.293 2.59 3.975 2.556 4.099-.026.056-.455.172-1.084.088-.136-.017-.281-.05-.434-.084l-.075-.016a3.985 3.985 0 0 1-.567-.153c-.394-.13-.827-.37-1.262-.64a7.385 7.385 0 0 1-1.225-1.03 12.436 12.436 0 0 1-.982-1.119c-.555-.718-.885-1.331-.866-1.42.016-.06.516-.335 1.27-.408a4.937 4.937 0 0 1 1.269.068Zm10.594-4.934a9.836 9.836 0 0 0-1.536-.05c-.349.017-.708.075-1.056.146-2.825.618-4.101 2.718-4.044 2.835.024.064.644.177 1.542.252.91.05 2.097.075 3.41-.176.651-.118 1.27-.284 1.847-.488a14.576 14.576 0 0 0 1.526-.613c.88-.414 1.432-.804 1.418-.867-.006-.035-.181-.145-.488-.29l-.03-.014c-.307-.137-.724-.324-1.247-.46a12.223 12.223 0 0 0-1.342-.275Zm19.984 91.785c.322.037.669.09 1.036.163.16.031.324.07.491.108l.073.016a12.809 12.809 0 0 1 1.825.494l.097.033c.392.134.79.27 1.194.449 3.474 1.497 6.102 4.231 6.017 4.441-.044.091-1.12.532-2.734.658-1.594.17-3.718-.016-5.574-.873a9.271 9.271 0 0 1-2.327-1.596 9.289 9.289 0 0 1-1.462-1.805c-.71-1.142-.948-2.05-.884-2.15.055-.088.962-.118 2.248.062Zm12.332-8.307c-.07-.957-.242-1.614-.284-1.647-.053-.044-.41.253-.86.763-.225.259-.46.616-.696 1.013a7.251 7.251 0 0 0-.658 1.43c-.393 1.083-.582 2.307-.667 3.272-.088.946-.058 1.647-.004 1.7.019.02.13-.006.3-.09.271.335.7.779 1.274 1.237 1.087.857 2.758 1.803 4.868 2.06 1.059.144 2.094.06 3.085-.082.96-.187 1.87-.445 2.617-.754.742-.315 1.355-.64 1.778-.898.414-.272.64-.475.644-.53.015-.223-3.433-2.123-7.342-2.497a23.69 23.69 0 0 0-1.434-.076c-.463-.006-.907.012-1.328.05-.863.035-1.627.164-2.288.283a7.64 7.64 0 0 0-.514.101 6.31 6.31 0 0 0 1.132-1.967c.392-1.198.45-2.406.377-3.368Zm-8.112 1.64c.033.05.04.737-.125 1.661-.083.462-.21.987-.402 1.517a6.524 6.524 0 0 1-.797 1.498 4.3 4.3 0 0 1-1.127 1.097c-.394.265-.788.48-1.14.574-.706.216-1.228.212-1.257.157-.04-.071.112-.752.442-1.623.165-.436.373-.919.62-1.395.124-.24.259-.471.403-.707.142-.241.296-.476.46-.696.305-.42.623-.717.928-1.001l.066-.062c.326-.292.64-.503.92-.65.552-.332.968-.427 1.01-.37Zm27.629-2.536c-.022-.095-1.019-.408-2.485-.593-1.457-.178-3.408-.272-5.36.055-.998.148-1.87.42-2.697.682-.407.136-.787.285-1.137.439l-.099.042-.128.055c-.271.115-.53.225-.765.342-.563.277-1.017.548-1.358.751l-.066.04c-.34.215-.525.375-.522.42.002.207 3.237 2.413 7.479 1.826a11.608 11.608 0 0 0 1.534-.328c.483-.152.95-.33 1.393-.526.9-.38 1.652-.87 2.291-1.323.647-.45 1.11-.911 1.44-1.251.325-.343.493-.578.48-.631ZM86.43 80.25c.063.015.445.536.775 1.344.165.405.317.883.41 1.41.046.264.078.54.089.823a5.205 5.205 0 0 1-.569 2.44 7.127 7.127 0 0 1-.816 1.201c-.569.654-1.11.986-1.167.97-.082-.025-.327-.626-.499-1.488-.087-.433-.149-.92-.18-1.451a7.411 7.411 0 0 1 .07-1.644 7.34 7.34 0 0 1 .418-1.495c.174-.426.387-.784.576-1.101l.02-.034c.4-.638.806-.985.873-.975Zm7.739-2.563c-.29-2.321-2.176-3.99-2.296-3.989-.078 0-.336.46-.585 1.158-.12.351-.216.777-.273 1.25a5.75 5.75 0 0 0-.02 1.54c.237 2.202 1.646 4.236 1.812 4.24.04.01.204-.157.405-.46.408.137.991.285 1.692.374.688.087 1.496.122 2.376.04a9.83 9.83 0 0 0 2.737-.69c.932-.392 1.75-.942 2.484-1.527a13.755 13.755 0 0 0 1.772-1.846c.907-1.218 1.358-2.217 1.291-2.32-.049-.093-1.035-.187-2.462-.059a16.41 16.41 0 0 0-2.366.39c-.842.205-1.755.474-2.614.87-.86.398-1.665.845-2.325 1.332a13.02 13.02 0 0 0-1.722 1.399 5.148 5.148 0 0 0 .094-1.702ZM106.39 64.34c1.366-.408 2.338-.52 2.411-.444.087.083-.123 1.1-.743 2.411-.31.655-.766 1.37-1.308 2.073-.554.7-1.262 1.368-2.056 1.933-1.647 1.116-3.419 1.57-4.817 1.698-.507.049-.959.059-1.331.047l-.003.004c-.65-.026-1.046-.11-1.087-.17-.026-.04.046-.265.219-.607l.043-.086a9.116 9.116 0 0 0-.116-.165l-.028-.04-.036-.05a10.182 10.182 0 0 1-1.381-2.801c-.64-2.205-.176-4.216-.06-4.269.09-.03 2.006 1.278 2.701 3.583.186.58.256 1.152.273 1.693v.023a14.127 14.127 0 0 1 2.745-2.636c1.534-1.088 3.211-1.789 4.574-2.197Zm3.783-9.497c.319-1.36.303-2.364.212-2.426-.081-.06-1.079.229-2.36.872-.64.322-1.352.73-2.055 1.222-.713.493-1.446 1.07-2.082 1.736a12.802 12.802 0 0 0-2.202 3.101 5.131 5.131 0 0 0-.267-.512c-1.309-2.3-3.796-3.207-3.902-3.149-.03.017-.062.18-.067.445-.004.132 0 .29.012.47.005.18.018.378.042.594.05.432.146.93.313 1.46.166.528.368 1.084.686 1.642a10.361 10.361 0 0 0 2.212 2.645c.731.626 1.333.963 1.411.928.06-.027.206-.7.194-1.663 0-.048-.001-.097-.008-.149.271-.057.568-.13.884-.223 1.388-.398 3.068-1.177 4.485-2.552a10.01 10.01 0 0 0 1.637-2.227c.391-.77.667-1.535.855-2.214Zm-1.658-13.895c.044.023.121.282.188.713.062.43.139 1.03.109 1.737-.022 1.411-.323 3.24-1.214 4.85a9.03 9.03 0 0 1-1.545 2.03 9.848 9.848 0 0 1-1.684 1.304c-1.057.647-1.895.88-1.986.817-.071-.052-.12-.916.092-2.13.081-.608.225-1.305.461-2.045.215-.739.509-1.519.934-2.298.798-1.547 1.941-2.811 2.861-3.681.934-.872 1.705-1.341 1.784-1.297Zm-7.974 7.002c-.927-.913-2.078-1.457-3-1.757-.924-.3-1.651-.363-1.698-.325-.05.045 0 .612.279 1.378.305.765.78 1.738 1.668 2.63 1.721 1.78 4.345 2.625 4.498 2.525.057-.036.067-.68-.147-1.556-.192-.877-.725-1.98-1.6-2.895Zm-2.101-10.814a5.931 5.931 0 0 1 1.849 2.374c.171.384.286.726.352.976.057.253.068.414.047.436-.055.06-.649.013-1.453-.215-.814-.227-1.824-.63-2.689-1.293-1.764-1.307-2.407-3.196-2.34-3.31.076-.09 2.378-.311 4.234 1.032Zm6.484-8.607c-.149-.425-.273-.672-.319-.685-.084-.027-.716.636-1.425 1.747-.696 1.107-1.519 2.661-1.976 4.423-.253.894-.368 1.75-.441 2.554-.085.807-.069 1.543-.05 2.185.04 1.281.246 2.148.312 2.189.089.045.866-.386 1.733-1.28.869-.895 1.891-2.286 2.411-4.136.538-1.853.459-3.793.203-5.243a10.136 10.136 0 0 0-.448-1.754Zm-6.718-12.15c.124-.009.8.908 1.462 2.355.301.74.607 1.604.804 2.553.172.963.288 1.98.189 3.033-.099 1.053-.325 2-.659 2.843a11.445 11.445 0 0 1-1.127 2.155c-.562.844-1.12 1.418-1.431 1.665.005.008.003.014 0 .017-.006.009-.025.018-.057.027-.093.067-.152.096-.178.091-.01-.003-.025-.019-.045-.046-.727.092-2.77.113-4.55-.515a6.98 6.98 0 0 1-1.441-.67c-.405-.25-.768-.497-1.039-.737-.54-.48-.835-.87-.804-.925.028-.046.65-.24 1.566-.337.905-.092 2.085-.066 3.251.31a6.27 6.27 0 0 1 2.483 1.6c-.088-.263-.173-.56-.25-.888a14.215 14.215 0 0 1-.433-2.301 13.986 13.986 0 0 1-.093-2.79c.048-.985.226-1.95.44-2.832.206-.875.47-1.68.738-2.367.54-1.377 1.07-2.244 1.174-2.241Zm-7.591-7.716c-.351-.322-.591-.487-.643-.473-.204.058-1.061 4.018-.392 7.948.082.497.192.966.315 1.413.113.459.243.892.385 1.297.224.609.447 1.184.679 1.684a7.634 7.634 0 0 0-.572-.33 5.502 5.502 0 0 0-.74-.319 5.168 5.168 0 0 0-2.48-.14 6.821 6.821 0 0 0-1.392.444c-.798.35-1.305.744-1.318.805-.014.073.34.467.977.854.61.426 1.522.828 2.609 1.012 1.112.152 2.213.04 3.068-.152.232-.052.444-.11.63-.166l.256-.085.077.114c.167.237.286.363.323.36.113-.012.667-.83 1.144-2.188.486-1.366.852-3.262.551-5.385-.169-1.04-.457-2.066-.87-2.939-.201-.442-.417-.862-.64-1.252-.223-.39-.47-.731-.701-1.05-.465-.637-.909-1.137-1.266-1.452Zm-7.404 4.905c.789.32 1.25.729 1.246.792-.003.084-.512.487-1.29.896-.786.422-1.843.87-2.933 1.03a5.912 5.912 0 0 1-1.53.072c-.458-.04-.883-.089-1.227-.185-.688-.194-1.138-.401-1.14-.478-.004-.06.38-.58 1.057-1.156.677-.578 1.635-1.15 2.802-1.376a5.49 5.49 0 0 1 3.015.405Zm-6.877-3.319c-.015-.06-.515-.335-1.268-.408a4.938 4.938 0 0 0-1.27.068c-.458.099-.942.31-1.4.615-1.854 1.293-2.591 3.975-2.556 4.099.025.056.455.172 1.084.088.135-.017.28-.05.434-.084l.075-.016c.179-.034.368-.084.566-.153.395-.13.827-.37 1.263-.64a7.39 7.39 0 0 0 1.225-1.03c.374-.385.703-.754.98-1.119.557-.718.887-1.331.867-1.42Zm4.02-8.382c.404.202.95.52 1.553.954.598.444 1.231 1.047 1.835 1.74.29.366.572.759.833 1.176.26.417.503.853.696 1.34 1.596 3.845.371 7.591.19 7.663-.041.017-.227-.114-.502-.371a9.105 9.105 0 0 1-1.058-1.096c-.407-.482-.87-1.038-1.308-1.737-.462-.648-.893-1.453-1.296-2.314-1.574-3.468-1.841-7.457-1.667-7.576.044-.03.313.038.724.221Z" clip-rule="evenodd"/><path fill="#242F3E" d="M49.961 72.422a2.468 2.468 0 0 1-1.796.79c-.673 0-1.32-.285-1.796-.79L32.025 57.209a4.166 4.166 0 0 1-1.116-2.857c0-1.071.401-2.099 1.116-2.856l1.796-1.905a3.703 3.703 0 0 1 2.695-1.184c1.01 0 1.98.426 2.694 1.184l8.955 9.496 24.199-25.66a3.703 3.703 0 0 1 2.694-1.184c1.01 0 1.98.426 2.695 1.184l1.796 1.905a4.165 4.165 0 0 1 1.116 2.857c0 1.072-.402 2.1-1.116 2.857L49.96 72.422Z"/><g fill="#242F3E"><path fill-rule="evenodd" d="M144.057 21.927c0 4.314-2.87 7.06-8.787 7.06h-10.595V5.311h11.587c4.606 0 7.086 2.496 7.086 6.454 0 2.032-1.24 3.743-2.87 4.421 1.984.749 3.579 2.353 3.579 5.74ZM135.341 9.41c2.303 0 3.259.748 3.259 2.567 0 1.676-1.027 2.567-2.976 2.567h-6.201V9.411h5.918Zm-5.918 15.547v-6.383h6.307c2.197 0 3.544.927 3.544 2.995 0 1.926-1.347 3.388-3.615 3.388h-6.236ZM153.164 10.98c5.35 0 8.185 3.494 8.185 10.448h-12.012c.142 2.638 1.63 4.35 3.898 4.35 1.488 0 2.799-.749 3.118-1.961h4.748c-1.063 3.601-3.933 5.634-7.654 5.634-5.811 0-8.716-3.21-8.716-9.557 0-5.42 3.083-8.914 8.433-8.914Zm-.142 3.673c-1.842 0-3.366 1.426-3.543 3.85h7.122c-.071-2.602-1.772-3.85-3.579-3.85Z" clip-rule="evenodd"/><path d="M177.859 16.756c-.248-3.78-2.516-5.776-7.547-5.776-5.315 0-7.335 2.246-7.335 5.206 0 1.569.567 2.924 2.197 3.958 1.24.784 2.87 1.284 5.811 1.997 1.488.356 2.799.749 2.799 1.997 0 1.319-1.453 1.818-3.083 1.818-2.232 0-3.614-.963-3.614-2.603h-4.748c.071 3.566 3.047 6.098 8.398 6.098 4.96 0 7.618-2.176 7.618-5.813 0-2.282-1.028-3.494-2.87-4.243-1.347-.535-3.225-.927-5.209-1.497-1.878-.535-2.834-.963-2.834-1.997 0-1.034.992-1.462 2.728-1.462 2.09 0 3.012.606 3.26 2.317h4.429ZM189.34 22c0 2.174-.851 3.422-2.693 3.422-1.878 0-2.658-1.283-2.658-3.494v-7.203h9.638v-3.28h-9.638V6.702h-4.535v15.69c0 3.779 2.02 7.06 7.122 7.06 4.925 0 7.051-3.317 7.051-7.025v-4.992h-4.287v4.564ZM147.494 63.127V39.451h-7.087l-4.252 17.365-4.252-17.365h-7.228v23.676h4.571V46.974l4.358 16.153h4.89l4.394-16.224v16.224h4.606Z"/><path fill-rule="evenodd" d="M164.608 52.038v11.089h-4.288c-.142-.428-.248-1.034-.283-1.569-1.099 1.212-2.941 2.033-5.28 2.033-3.968 0-5.811-1.962-5.811-4.814 0-5.063 3.366-5.634 8.008-6.276 2.303-.32 2.941-.784 2.941-1.997 0-1.14-1.134-1.818-2.941-1.818-2.09 0-2.941 1.034-3.153 2.603h-4.288c.071-3.637 2.055-6.169 7.654-6.169 5.527 0 7.441 2.496 7.441 6.918Zm-8.823 8.237c2.374 0 4.145-1.747 4.181-3.815l.035-1.926c-.46.464-1.275.713-2.976 1.034-2.622.5-3.472 1.248-3.472 2.746 0 1.32.779 1.961 2.232 1.961Z" clip-rule="evenodd"/><path d="M176.512 56.138c0 2.175-.85 3.423-2.692 3.423-1.878 0-2.658-1.284-2.658-3.495v-7.202h9.638v-3.28h-9.638V40.84h-4.535V56.53c0 3.78 2.019 7.06 7.122 7.06 4.925 0 7.051-3.316 7.051-7.024v-4.992h-4.288v4.564ZM192.564 56.138c0 2.175-.851 3.423-2.693 3.423-1.878 0-2.657-1.284-2.657-3.495v-7.202h9.637v-3.28h-9.637V40.84h-4.536V56.53c0 3.78 2.02 7.06 7.122 7.06 4.925 0 7.051-3.316 7.051-7.024v-4.992h-4.287v4.564ZM203.336 63.127v-9.128c0-2.817 1.382-4.243 4.217-4.243.425 0 .85.035 1.275.106V45.12h-.602c-1.878 0-3.649.214-5.173 2.567v-2.103h-4.323v17.543h4.606Z"/><path fill-rule="evenodd" d="M217.083 45.12c5.351 0 8.185 3.495 8.185 10.448h-12.011c.141 2.638 1.63 4.35 3.897 4.35 1.488 0 2.799-.749 3.118-1.961h4.748c-1.063 3.601-3.933 5.634-7.653 5.634-5.811 0-8.717-3.21-8.717-9.557 0-5.42 3.083-8.914 8.433-8.914Zm-.141 3.673c-1.843 0-3.366 1.426-3.544 3.85h7.122c-.07-2.602-1.771-3.85-3.578-3.85Z" clip-rule="evenodd"/><path d="M241.78 50.897c-.248-3.78-2.516-5.777-7.547-5.777-5.315 0-7.335 2.247-7.335 5.206 0 1.569.567 2.924 2.197 3.958 1.24.785 2.87 1.284 5.811 1.997 1.488.356 2.799.749 2.799 1.997 0 1.319-1.453 1.818-3.083 1.818-2.232 0-3.614-.963-3.614-2.603h-4.748c.071 3.566 3.048 6.098 8.398 6.098 4.96 0 7.618-2.175 7.618-5.813 0-2.282-1.028-3.494-2.87-4.243-1.347-.535-3.225-.927-5.209-1.497-1.878-.535-2.834-.963-2.834-1.997 0-1.034.992-1.462 2.728-1.462 2.09 0 3.012.606 3.26 2.318h4.429ZM258.504 50.897c-.248-3.78-2.516-5.777-7.547-5.777-5.315 0-7.335 2.247-7.335 5.206 0 1.569.567 2.924 2.197 3.958 1.24.785 2.87 1.284 5.811 1.997 1.488.356 2.799.749 2.799 1.997 0 1.319-1.453 1.818-3.082 1.818-2.233 0-3.615-.963-3.615-2.603h-4.748c.071 3.566 3.048 6.098 8.398 6.098 4.961 0 7.618-2.175 7.618-5.813 0-2.282-1.028-3.494-2.87-4.243-1.346-.535-3.224-.927-5.209-1.497-1.878-.535-2.834-.963-2.834-1.997 0-1.034.992-1.462 2.728-1.462 2.091 0 3.012.606 3.26 2.318h4.429Z"/><path fill-rule="evenodd" d="M146.927 87.267c0 8.13-4.004 12.337-11.232 12.337-7.229 0-11.303-4.457-11.303-12.444 0-8.023 4.074-12.837 11.303-12.837 7.228 0 11.232 4.814 11.232 12.944Zm-17.68 0c0 5.598 2.374 8.094 6.448 8.094 3.544 0 6.378-2.496 6.378-8.094 0-5.598-2.267-8.558-6.378-8.558-4.145 0-6.448 2.96-6.448 8.558Z" clip-rule="evenodd"/><path d="M164.324 98.784v-12.16c0-3.815-2.445-5.847-5.776-5.847-2.799 0-4.571 1.07-5.634 3.03V81.24h-4.393v17.544h4.606V88.728c0-2.674 1.169-4.029 3.579-4.029 2.196 0 2.976.749 2.976 3.459v10.626h4.642ZM170.949 98.784V74.823h-4.606v23.961h4.606Z"/><path fill-rule="evenodd" d="M177.611 74.823v4.314h-4.606v-4.314h4.606Zm0 6.418v17.543h-4.606V81.241h4.606Z" clip-rule="evenodd"/><path d="M195.506 98.784v-12.16c0-3.815-2.445-5.847-5.776-5.847-2.799 0-4.57 1.07-5.633 3.03V81.24h-4.394v17.544h4.606V88.728c0-2.674 1.169-4.029 3.579-4.029 2.197 0 2.976.749 2.976 3.459v10.626h4.642Z"/><path fill-rule="evenodd" d="M205.568 80.777c5.35 0 8.185 3.494 8.185 10.447h-12.012c.142 2.64 1.63 4.35 3.898 4.35 1.488 0 2.799-.748 3.118-1.96h4.748c-1.063 3.6-3.933 5.633-7.654 5.633-5.811 0-8.716-3.209-8.716-9.556 0-5.42 3.082-8.914 8.433-8.914Zm-.142 3.673c-1.842 0-3.366 1.426-3.543 3.85h7.122c-.071-2.602-1.772-3.85-3.579-3.85Z" clip-rule="evenodd"/></g></svg>